<?xml version="1.0" encoding="UTF-8"?>
<svg width="48px" height="48px" viewBox="0 0 48 48" version="1.1" xmlns="http://www.w3.org/2000/svg" xmlns:xlink="http://www.w3.org/1999/xlink">
    <title>形状结合</title>
    <g id="控件" stroke="none" stroke-width="1" fill="none" fill-rule="evenodd">
        <g id="5.Notification消息提醒-/-2.Message全局提示/强提示/失败" transform="translate(-156.000000, -12.000000)" fill="#F74E4F">
            <g id="失败" transform="translate(156.000000, 12.000000)">
                <path d="M24,0 C37.254834,0 48,10.745166 48,24 C48,37.254834 37.254834,48 24,48 C10.745166,48 0,37.254834 0,24 C0,10.745166 10.745166,0 24,0 Z M19.0273864,15.8454058 C18.1487067,14.9667262 16.7240855,14.9667262 15.8454058,15.8454058 C14.9667262,16.7240855 14.9667262,18.1487067 15.8454058,19.0273864 L15.8454058,19.0273864 L21.2543961,24.4363961 L15.8454058,29.8461201 C14.9667262,30.7247998 14.9667262,32.149421 15.8454058,33.0281006 C16.7240855,33.9067803 18.1487067,33.9067803 19.0273864,33.0281006 L19.0273864,33.0281006 L24.4363961,27.6173961 L29.8461201,33.0281006 C30.7247998,33.9067803 32.149421,33.9067803 33.0281006,33.0281006 C33.9067803,32.149421 33.9067803,30.7247998 33.0281006,29.8461201 L33.0281006,29.8461201 L27.6173961,24.4363961 L33.0281006,19.0273864 C33.9067803,18.1487067 33.9067803,16.7240855 33.0281006,15.8454058 C32.149421,14.9667262 30.7247998,14.9667262 29.8461201,15.8454058 L29.8461201,15.8454058 L24.4363961,21.2543961 Z" id="形状结合"></path>
            </g>
        </g>
    </g>
</svg>