<?xml version="1.0" encoding="UTF-8"?>
<svg width="48px" height="48px" viewBox="0 0 48 48" version="1.1" xmlns="http://www.w3.org/2000/svg" xmlns:xlink="http://www.w3.org/1999/xlink">
    <title>蓝色</title>
    <g id="20240307" stroke="none" stroke-width="1" fill="none" fill-rule="evenodd">
        <g id="5.Notification消息提醒-/-2.Message全局提示/强提示/警告" fill="#3370FF" fill-rule="nonzero">
            <g id="警告">
                <path d="M24,0 C37.254834,0 48,10.745166 48,24 C48,37.254834 37.254834,48 24,48 C10.745166,48 0,37.254834 0,24 C0,10.745166 10.745166,0 24,0 Z M24,17 C22.3431458,17 21,18.3431458 21,20 L21,20 L21,36 C21,37.6568542 22.3431458,39 24,39 C25.6568542,39 27,37.6568542 27,36 L27,36 L27,20 C27,18.3431458 25.6568542,17 24,17 Z M24,9 C22.3431458,9 21,10.3431458 21,12 C21,13.6568542 22.3431458,15 24,15 C25.6568542,15 27,13.6568542 27,12 C27,10.3431458 25.6568542,9 24,9 Z" id="蓝色"></path>
            </g>
        </g>
    </g>
</svg>