<?xml version="1.0" encoding="UTF-8"?>
<svg version="1.1" xmlns="http://www.w3.org/2000/svg" width="20" height="52">
<path d="M0 0 C0 17.16 0 34.32 0 52 C-4.49923144 51.35725265 -8.48930085 50.72946145 -12.8125 49.5625 C-13.74707031 49.31628906 -14.68164062 49.07007813 -15.64453125 48.81640625 C-18 48 -18 48 -20 46 C-20.20006302 43.01037897 -20.27972923 40.1153765 -20.265625 37.125 C-20.26753845 36.24473145 -20.2694519 35.36446289 -20.27142334 34.45751953 C-20.27278552 32.59472366 -20.26908682 30.73191831 -20.26074219 28.86914062 C-20.25004307 26.01150264 -20.26063632 23.15449334 -20.2734375 20.296875 C-20.27211591 18.48958194 -20.26955353 16.68228927 -20.265625 14.875 C-20.26967346 14.01664551 -20.27372192 13.15829102 -20.27789307 12.27392578 C-20.22991745 6.22991745 -20.22991745 6.22991745 -18 4 C-15.73136564 3.22104534 -13.43440433 2.52316962 -11.125 1.875 C-9.89007813 1.52179687 -8.65515625 1.16859375 -7.3828125 0.8046875 C-4 -0 -4 -0 0 0 Z " fill="#E5E7EC" transform="translate(20,0)"/>
<path d="M0 0 C0.99 0.33 1.98 0.66 3 1 C1.9790625 2.3303125 1.9790625 2.3303125 0.9375 3.6875 C-1.23128641 6.7293661 -1.23128641 6.7293661 -0.9375 9.5625 C0.10195384 12.26507997 1.41150751 14.58272882 3 17 C0 17 0 17 -1.45703125 15.64453125 C-2.8211229 13.80084541 -4.01691031 12.07444916 -5 10 C-4.5 7.375 -4.5 7.375 -3 5 C-2.46375 4.071875 -1.9275 3.14375 -1.375 2.1875 C-0.694375 1.1046875 -0.694375 1.1046875 0 0 Z " fill="#7E7E80" transform="translate(11,18)"/>
<path d="M0 0 C0.66 0 1.32 0 2 0 C3.5078125 1.96875 3.5078125 1.96875 5.125 4.5 C5.66382813 5.3353125 6.20265625 6.170625 6.7578125 7.03125 C7.16773438 7.6809375 7.57765625 8.330625 8 9 C7.01 9 6.02 9 5 9 C3.61328125 7.5390625 3.61328125 7.5390625 2.3125 5.625 C1.65701172 4.68527344 1.65701172 4.68527344 0.98828125 3.7265625 C0 2 0 2 0 0 Z " fill="#757576" transform="translate(6,26)"/>
</svg>
