<?xml version="1.0" encoding="UTF-8"?>
<svg version="1.1" xmlns="http://www.w3.org/2000/svg" width="20" height="52">
<path d="M0 0 C4.9671126 0.70958751 8.7523703 1.41642912 13.375 3 C14.41398438 3.350625 15.45296875 3.70125 16.5234375 4.0625 C19 5 19 5 20 6 C20.08868299 8.95705321 20.11520296 11.89065056 20.09765625 14.84765625 C20.0962413 15.7340831 20.09482635 16.62050995 20.09336853 17.53379822 C20.08775215 20.37673254 20.07519691 23.21958931 20.0625 26.0625 C20.05748711 27.98502491 20.05292384 29.90755104 20.04882812 31.83007812 C20.03777741 36.55341549 20.02050183 41.27669458 20 46 C16.12613079 47.97936637 12.52366306 49.57744447 8.3125 50.6875 C7.38050781 50.93886719 6.44851562 51.19023438 5.48828125 51.44921875 C3 52 3 52 0 52 C0 34.84 0 17.68 0 0 Z " fill="#E5E6EC" transform="translate(0,0)"/>
<path d="M0 0 C0.66 0 1.32 0 2 0 C4.10331426 2.43573462 5.70612554 5.05588736 7 8 C6.5 10.75 6.5 10.75 5 13 C4.505 13.763125 4.01 14.52625 3.5 15.3125 C2.7575 16.1478125 2.7575 16.1478125 2 17 C1.34 17 0.68 17 0 17 C0.309375 16.278125 0.61875 15.55625 0.9375 14.8125 C1.957316 12.11298705 2.7785825 9.87842747 3 7 C1.6083124 4.86655232 1.6083124 4.86655232 0 3 C0 2.01 0 1.02 0 0 Z " fill="#78797A" transform="translate(7,18)"/>
</svg>
