<?xml version="1.0" encoding="UTF-8"?>
<svg width="48px" height="48px" viewBox="0 0 48 48" version="1.1" xmlns="http://www.w3.org/2000/svg" xmlns:xlink="http://www.w3.org/1999/xlink">
    <title>形状结合</title>
    <g id="控件" stroke="none" stroke-width="1" fill="none" fill-rule="evenodd">
        <g id="5.Notification消息提醒-/-2.Message全局提示/强提示/成功" transform="translate(-156.000000, -12.000000)" fill="#05BD80">
            <g id="成功" transform="translate(156.000000, 12.000000)">
                <path d="M24,0 C37.254834,0 48,10.745166 48,24 C48,37.254834 37.254834,48 24,48 C10.745166,48 0,37.254834 0,24 C0,10.745166 10.745166,0 24,0 Z M35.5208153,16.732233 C34.5445046,15.7559223 32.9615921,15.7559223 31.9852814,16.732233 L31.9852814,16.732233 L21.720427,26.997 L15.7121939,20.9879628 C14.7358832,20.0116521 13.1529707,20.0116521 12.17666,20.9879628 C11.2003493,21.9642736 11.2003493,23.547186 12.17666,24.5234967 L12.17666,24.5234967 L19.9548346,32.3016713 C20.9311453,33.2779821 22.5140578,33.2779821 23.4903685,32.3016713 C23.504626,32.2874139 23.5186752,32.2730271 23.5325162,32.2585147 L23.5325162,32.2585147 L35.5208153,20.267767 C36.497126,19.2914562 36.497126,17.7085438 35.5208153,16.732233 Z" id="形状结合"></path>
            </g>
        </g>
    </g>
</svg>