<?xml version="1.0" encoding="UTF-8"?>
<svg width="48px" height="48px" viewBox="0 0 48 48" version="1.1" xmlns="http://www.w3.org/2000/svg" xmlns:xlink="http://www.w3.org/1999/xlink">
    <title>形状结合</title>
    <g id="控件" stroke="none" stroke-width="1" fill="none" fill-rule="evenodd">
        <g id="5.Notification消息提醒-/-2.Message全局提示/强提示/警告" transform="translate(-156.000000, -12.000000)" fill="#F9AD13" fill-rule="nonzero">
            <g id="警告" transform="translate(156.000000, 12.000000)">
                <path d="M24,0 C37.254834,0 48,10.745166 48,24 C48,37.254834 37.254834,48 24,48 C10.745166,48 0,37.254834 0,24 C0,10.745166 10.745166,0 24,0 Z M24,33 C22.3431458,33 21,34.3431458 21,36 C21,37.6568542 22.3431458,39 24,39 C25.6568542,39 27,37.6568542 27,36 C27,34.3431458 25.6568542,33 24,33 Z M25.7442155,9 L22.2285329,9.00030948 L22.2285329,9.00030948 L22.2012953,9.00123775 C21.5392372,9.0313313 21.0269287,9.59243108 21.0570222,10.2544892 L21.0570222,10.2544892 L21.9479313,29.8544892 C21.9770628,30.4953812 22.5051398,31 23.1466936,31 L23.1466936,31 L24.8533064,31 C25.4948602,31 26.0229372,30.4953812 26.0520687,29.8544892 L26.0520687,29.8544892 L26.9429778,10.2544892 L26.9429778,10.2544892 L26.9442155,10.2 C26.9442155,9.5372583 26.4069572,9 25.7442155,9 L25.7442155,9 Z" id="形状结合"></path>
            </g>
        </g>
    </g>
</svg>