<?xml version="1.0" encoding="UTF-8"?>
<svg width="32px" height="32px" viewBox="0 0 32 32" version="1.1" xmlns="http://www.w3.org/2000/svg" xmlns:xlink="http://www.w3.org/1999/xlink">
    <title>其他</title>
    <defs>
        <linearGradient x1="84.7222222%" y1="4.33570151%" x2="19.6046718%" y2="97.1407161%" id="linearGradient-1">
            <stop stop-color="#FFB292" offset="0%"></stop>
            <stop stop-color="#FF6423" offset="100%"></stop>
        </linearGradient>
        <rect id="path-2" x="4.8" y="13.6" width="14.4" height="3.2"></rect>
        <filter x="-69.4%" y="-250.0%" width="238.9%" height="725.0%" filterUnits="objectBoundingBox" id="filter-3">
            <feOffset dx="0" dy="2" in="SourceAlpha" result="shadowOffsetOuter1"></feOffset>
            <feGaussianBlur stdDeviation="3" in="shadowOffsetOuter1" result="shadowBlurOuter1"></feGaussianBlur>
            <feColorMatrix values="0 0 0 0 1   0 0 0 0 0.303370787   0 0 0 0 0  0 0 0 1 0" type="matrix" in="shadowBlurOuter1"></feColorMatrix>
        </filter>
        <rect id="path-4" x="4.8" y="20" width="14.4" height="3.2"></rect>
        <filter x="-69.4%" y="-250.0%" width="238.9%" height="725.0%" filterUnits="objectBoundingBox" id="filter-5">
            <feOffset dx="0" dy="2" in="SourceAlpha" result="shadowOffsetOuter1"></feOffset>
            <feGaussianBlur stdDeviation="3" in="shadowOffsetOuter1" result="shadowBlurOuter1"></feGaussianBlur>
            <feColorMatrix values="0 0 0 0 1   0 0 0 0 0.303370787   0 0 0 0 0  0 0 0 1 0" type="matrix" in="shadowBlurOuter1"></feColorMatrix>
        </filter>
    </defs>
    <g id="3.14" stroke="none" stroke-width="1" fill="none" fill-rule="evenodd">
        <g id="画板备份" transform="translate(-535.000000, -410.000000)">
            <g id="其他" transform="translate(535.000000, 410.000000)">
                <rect id="矩形" x="0" y="0" width="32" height="32"></rect>
                <g id="编组" transform="translate(2.024273, 1.600000)">
                    <polygon id="矩形" fill="#FF8A59" points="19.2 24.8 26.4 24.8 26.4 28.8 19.2 28.8"></polygon>
                    <path d="M24,7.2 L26.4,7.2 C27.2836556,7.2 28,7.9163444 28,8.8 L28,26.8 C28,27.9045695 27.1045695,28.8 26,28.8 C24.8954305,28.8 24,27.9045695 24,26.8 L24,7.2 L24,7.2 Z" id="矩形备份" fill="#FF4B00"></path>
                    <path d="M1.6,0 L22.4,0 C23.2836556,1.40736277e-15 24,0.7163444 24,1.6 L24,28.8 L24,28.8 L1.6,28.8 C0.7163444,28.8 1.62623698e-15,28.0836556 0,27.2 L0,1.6 C1.13828005e-16,0.7163444 0.7163444,8.28458715e-16 1.6,0 Z" id="矩形" fill="url(#linearGradient-1)"></path>
                    <g id="矩形" fill-rule="nonzero">
                        <use fill="black" fill-opacity="1" filter="url(#filter-3)" xlink:href="#path-2"></use>
                        <use fill="#FFEDE7" xlink:href="#path-2"></use>
                    </g>
                    <g id="矩形备份-2" fill-rule="nonzero">
                        <use fill="black" fill-opacity="1" filter="url(#filter-5)" xlink:href="#path-4"></use>
                        <use fill="#FFEDE7" xlink:href="#path-4"></use>
                    </g>
                </g>
            </g>
        </g>
    </g>
</svg>