<?xml version="1.0" encoding="UTF-8"?>
<svg width="32px" height="32px" viewBox="0 0 32 32" version="1.1" xmlns="http://www.w3.org/2000/svg" xmlns:xlink="http://www.w3.org/1999/xlink">
    <title>word</title>
    <defs>
        <linearGradient x1="100%" y1="50%" x2="84.4133575%" y2="50%" id="linearGradient-1">
            <stop stop-color="#1C69FC" offset="0%"></stop>
            <stop stop-color="#154FEC" offset="100%"></stop>
        </linearGradient>
        <linearGradient x1="84.7222222%" y1="4.33570151%" x2="19.6046718%" y2="97.1407161%" id="linearGradient-2">
            <stop stop-color="#4CABFF" offset="0%"></stop>
            <stop stop-color="#2375FF" offset="100%"></stop>
        </linearGradient>
        <polygon id="path-3" points="7.5384 20.8 10.596 20.8 12.0912 14.6008 12.192 14.6008 13.6872 20.8 16.7448 20.8 19.2312 11.728 16.6776 11.728 15.2496 18.28 15.1488 18.28 13.5528 11.728 10.7976 11.728 9.2016 18.28 9.1008 18.28 7.6728 11.728 5.0856 11.728"></polygon>
        <filter x="-63.6%" y="-66.1%" width="227.2%" height="298.4%" filterUnits="objectBoundingBox" id="filter-4">
            <feOffset dx="0" dy="3" in="SourceAlpha" result="shadowOffsetOuter1"></feOffset>
            <feGaussianBlur stdDeviation="2.5" in="shadowOffsetOuter1" result="shadowBlurOuter1"></feGaussianBlur>
            <feColorMatrix values="0 0 0 0 0.0948659126   0 0 0 0 0.387060295   0 0 0 0 0.93248981  0 0 0 1 0" type="matrix" in="shadowBlurOuter1"></feColorMatrix>
        </filter>
    </defs>
    <g id="3.14" stroke="none" stroke-width="1" fill="none" fill-rule="evenodd">
        <g id="画板备份" transform="translate(-535.000000, -467.000000)">
            <g id="word" transform="translate(535.000000, 467.000000)">
                <rect id="矩形" x="0" y="0" width="32" height="32"></rect>
                <g id="编组" transform="translate(2.024273, 1.600000)">
                    <polygon id="矩形" fill="#368DFF" points="19.2 24.8 26.4 24.8 26.4 28.8 19.2 28.8"></polygon>
                    <path d="M24,7.2 L26.4,7.2 C27.2836556,7.2 28,7.9163444 28,8.8 L28,26.8 C28,27.9045695 27.1045695,28.8 26,28.8 C24.8954305,28.8 24,27.9045695 24,26.8 L24,7.2 L24,7.2 Z" id="矩形备份" fill="url(#linearGradient-1)"></path>
                    <path d="M1.6,0 L22.4,0 C23.2836556,1.40736277e-15 24,0.7163444 24,1.6 L24,28.8 L24,28.8 L1.6,28.8 C0.7163444,28.8 1.62623698e-15,28.0836556 0,27.2 L0,1.6 C1.13828005e-16,0.7163444 0.7163444,8.28458715e-16 1.6,0 Z" id="矩形" fill="url(#linearGradient-2)"></path>
                    <g id="路径" fill-rule="nonzero">
                        <use fill="black" fill-opacity="1" filter="url(#filter-4)" xlink:href="#path-3"></use>
                        <use fill="#E7F8FF" xlink:href="#path-3"></use>
                    </g>
                </g>
            </g>
        </g>
    </g>
</svg>